<svg xmlns="http://www.w3.org/2000/svg" width="56.774" height="40" viewBox="0 0 56.774 40"><path d="M63.588,40.246a7.134,7.134,0,0,0-5.019-5.052C54.141,34,36.387,34,36.387,34s-17.754,0-22.181,1.194a7.134,7.134,0,0,0-5.019,5.052C8,44.7,8,54,8,54s0,9.3,1.186,13.754a7.134,7.134,0,0,0,5.019,5.052C18.633,74,36.387,74,36.387,74s17.754,0,22.181-1.194a7.134,7.134,0,0,0,5.019-5.052C64.774,63.3,64.774,54,64.774,54S64.774,44.7,63.588,40.246Zm-33.007,22.2V45.558L45.419,54Z" transform="translate(-8 -34)" fill="#fff"/></svg>