<svg xmlns="http://www.w3.org/2000/svg" width="40.422" height="40.422" viewBox="0 0 40.422 40.422"><g transform="translate(0 -40)"><g transform="translate(0 40)"><path d="M24.29,7.721c5.4,0,6.036.021,8.167.118a11.183,11.183,0,0,1,3.753.7,6.693,6.693,0,0,1,3.836,3.836,11.183,11.183,0,0,1,.7,3.753c.1,2.131.118,2.77.118,8.167s-.021,6.036-.118,8.167a11.183,11.183,0,0,1-.7,3.753,6.693,6.693,0,0,1-3.836,3.836,11.183,11.183,0,0,1-3.753.7c-2.131.1-2.77.118-8.167.118s-6.036-.021-8.167-.118a11.183,11.183,0,0,1-3.753-.7A6.693,6.693,0,0,1,8.535,36.21a11.183,11.183,0,0,1-.7-3.753c-.1-2.131-.118-2.77-.118-8.167s.021-6.036.118-8.167a11.183,11.183,0,0,1,.7-3.753,6.693,6.693,0,0,1,3.836-3.836,11.183,11.183,0,0,1,3.753-.7c2.131-.1,2.77-.118,8.167-.118m0-3.642c-5.489,0-6.177.023-8.333.122a14.835,14.835,0,0,0-4.906.939,10.335,10.335,0,0,0-5.911,5.911A14.835,14.835,0,0,0,4.2,15.957c-.1,2.156-.122,2.844-.122,8.333s.023,6.177.122,8.333a14.835,14.835,0,0,0,.939,4.906,10.335,10.335,0,0,0,5.911,5.911,14.834,14.834,0,0,0,4.906.939c2.156.1,2.844.122,8.333.122s6.177-.023,8.333-.122a14.834,14.834,0,0,0,4.906-.939,10.335,10.335,0,0,0,5.911-5.911,14.834,14.834,0,0,0,.939-4.906c.1-2.156.122-2.844.122-8.333s-.023-6.177-.122-8.333a14.835,14.835,0,0,0-.939-4.906A10.335,10.335,0,0,0,37.529,5.14,14.835,14.835,0,0,0,32.623,4.2c-2.156-.1-2.844-.122-8.333-.122Z" transform="translate(-4.079 -4.079)" fill="#fff"/><path d="M137.014,126.635a10.379,10.379,0,1,0,10.379,10.379A10.379,10.379,0,0,0,137.014,126.635Zm0,17.116a6.737,6.737,0,1,1,6.737-6.737,6.737,6.737,0,0,1-6.737,6.737Z" transform="translate(-116.803 -116.803)" fill="#fff"/><circle cx="2.425" cy="2.425" r="2.425" transform="translate(28.574 6.997)" fill="#fff"/></g></g></svg>