<?xml version="1.0" encoding="utf-8"?>
<!-- Generator: Adobe Illustrator 25.3.1, SVG Export Plug-In . SVG Version: 6.00 Build 0)  -->
<svg version="1.1" id="Ebene_1" xmlns="http://www.w3.org/2000/svg" xmlns:xlink="http://www.w3.org/1999/xlink" x="0px" y="0px"
	 viewBox="0 0 177.6 80" style="enable-background:new 0 0 177.6 80;" xml:space="preserve">
<style type="text/css">
	.st0{fill-rule:evenodd;clip-rule:evenodd;fill:#FFFFFF;}
	.st1{fill:#FFFFFF;}
	.st2{fill:#006937;}
</style>
<g>
	<g>
		<path class="st0" d="M24.5,69.7c-1.9-3.3-2.5-4.1-3.6-4.9c-0.6-0.4-1.1-0.6-2.2-0.7c2.5-0.7,3.2-1,4.6-2.2
			c1.6-1.3,2.6-3.5,2.6-5.5c0-4.2-3.5-7.2-8.3-7.2c-0.1,0-0.2,0-0.4,0l-3.4,0.1c-0.6,0-1.6,0-3,0c-0.2,0-0.5,0-0.7,0
			c-0.3,0-0.7-0.1-1.1-0.3c0.1,0.1,0.5,0.9,0.5,3.3v3.5h0c0,1.1,0.1,2.3,0.1,3.4v2.3l0,0.6c0,3.7-0.1,6-0.1,6.9c0,1,0,1.7,0,2v0.1
			c0,2.1-0.6,2.7-2.2,2.8v0.9h0.3l4.4,0l4.4,0h0.3V74c-2-0.2-2.4-0.7-2.4-4.6l0-3.7l0-0.9c2,0.2,2.5,0.6,3.3,2.1L19,70
			c2.2,4.3,5.5,6.6,9.4,6.6c0.6,0,1.3,0,2.3-0.1v-0.8C28.4,75.3,26.8,73.8,24.5,69.7z M14.9,63.1c-0.3,0-0.4,0-0.8,0v-0.6
			c0-1.2,0-3,0.1-5.5c0-2.3,0-4,0.1-5.2v-0.5c0.4-0.1,0.6-0.1,1-0.1c3.4,0,5.8,2.6,5.8,6.3C21,60.7,18.4,63.1,14.9,63.1z"/>
		<path class="st0" d="M46.7,65.7c0-5.4-3.8-9.2-9.2-9.2c-5.5,0-9.4,3.9-9.4,9.5c0,5.5,3.8,9.3,9.3,9.3
			C42.9,75.4,46.7,71.5,46.7,65.7z M42,65.9c0,4.7-1.9,7.9-4.7,7.9c-2.8,0-4.6-3.2-4.6-7.8c0-4.7,1.9-7.7,4.8-7.7
			C40.2,58.3,42,61.3,42,65.9z"/>
		<path class="st0" d="M61.1,70c0,3-2.8,5.3-6.3,5.3c-1.3,0-3-0.2-3.5-0.4c-0.6-0.2-0.9-0.3-1.1-0.3c-0.2,0-0.5,0.2-0.6,0.4h-0.9
			c0-0.2,0-0.2,0-0.3c0-0.1,0-0.2,0-0.4c0-0.7,0-1.5,0-2.2l0-2.5v-0.3h1c0,2.5,2,4.4,4.5,4.4c1.6,0,2.9-1.1,2.9-2.5
			c0-0.9-0.6-1.7-2-2.7l-2.5-1.8c-2.3-1.6-3.5-3.5-3.5-5.4c0-2.8,2.5-4.8,6.2-4.8c0.7,0,1.4,0.1,2.1,0.2c0,0,0,0,0,0
			c0.5,0.1,1.1,0.2,1.7,0.3c0.2,0,0.4,0,0.6,0c0.1,0,0.2,0,0.3,0c-0.1,1.9-0.1,2.3-0.2,4.4v0.3h-1c-0.3-2.5-1.4-3.7-3.3-3.7
			c-1.3,0-2.3,0.8-2.3,2c0,1.1,0.6,2,2.2,3.2l2.3,1.8C60.3,66.9,61.1,68.2,61.1,70z"/>
		<path class="st0" d="M74.6,56.7c-1.9,0-3.8,0.8-6,2.6v-4l0-4.8c0-1.4,0-2.2,0.1-2.8c0-0.6,0-1,0.1-1.7c-0.2,0-0.3,0-0.4,0
			c-0.3,0-0.8,0.1-1.5,0.2c-0.2,0-0.4,0-0.6,0.1c-0.2,0-0.5,0-0.7,0.1c0,0-0.1,0-0.1,0c-0.1,0-0.1,0-0.2,0c-0.1,0-0.2,0-0.3,0
			c0,0-0.1,0-0.1,0c-0.3,0-0.7-0.1-1.1-0.3c0.1,0.1,0.5,0.8,0.8,3v6.3l0.1,5.4l0,5l0,3c0,2,0,2.2-0.1,3.2c2.2,2,5.2,3.3,8.2,3.3
			c5.7,0,9.4-3.9,9.4-9.8C81.8,60.4,78.8,56.7,74.6,56.7z M72.1,73.7c-1,0-1.9-0.4-2.5-1.3c-0.9-1.2-1-1.7-1-5.8l0-2.1v-3.4
			c1.2-1.2,2.6-1.9,3.9-1.9c3,0,4.9,2.6,4.9,6.8C77.4,70.6,75.2,73.7,72.1,73.7z"/>
		<path class="st0" d="M101,72.7c-0.4,0.1-0.8,0.1-1,0.1c-1.4,0-1.6-0.8-1.6-5.1v-1.8c0-4-0.2-5.4-1.1-7c-0.8-1.6-3-2.4-5.9-2.4
			c-0.6,0-1.2,0.1-1.7,0.2c0,0-0.1,0-0.1,0c0,0,0,0,0,0c-0.9,0.3-1.9,0.4-2.9,0.4c-0.2,0-0.4,0-0.6,0c-0.1,0.7-0.1,1.2-0.2,1.7
			c0,0.2-0.2,1.2-0.4,2.9l0,0.3l1,0c0.8-2.4,2.4-3.8,4.5-3.8c2.4,0,3.2,1.4,3.2,5.8v0.7c-1,0-1.8-0.1-2.3-0.1c-5,0-7.9,2.1-7.9,5.5
			c0,2.8,2.3,5.1,5.1,5.1c2,0,3.8-0.8,5.4-2.4c0.2,1,0.6,1.8,1,2.5c1.7-0.7,3.2-1.2,5.4-1.7l0.2,0L101,72.7z M91.2,72.8
			c-1.8,0-3-1.2-3-3c0-2.2,2-3.6,5.1-3.6c0.2,0,0.4,0,0.8,0v4.2c0,0.5,0,0.6,0,1C92.8,72.5,92.2,72.8,91.2,72.8z"/>
		<path class="st0" d="M118.1,72.7c-2.2,1.8-4.6,2.7-7.2,2.7c-5,0-8.6-3.9-8.6-9.4c0-3.5,1.4-6.3,3.9-7.9c1.5-1,3.3-1.5,5.4-1.5
			c1,0,2,0.1,3,0.4c0,0,0,0,0,0c0.2,0.1,0.5,0.1,0.7,0.2c0,0,0.1,0,0.1,0c1,0.4,1.7,1.1,2.2,2c0,0.2,0,0.5,0,0.8v2.4h-1.1
			c-0.3-2.5-2-4.1-4.4-4.1c-0.7,0-1.4,0.2-2,0.5c-1.9,1-3.1,3.5-3.1,6.7c0,4.8,2.4,7.8,6.1,7.8c1.5,0,2.8-0.4,4.6-1.6l0.4,0.8
			L118.1,72.7z"/>
		<path class="st0" d="M139.2,74v0.9h-0.4l-4.1-0.1l-4.2,0h-0.4V74h0.3c2-0.2,2.3-1,2.3-5.6c0-2.8-0.2-5-0.4-6.2
			c-0.3-1.6-1.4-2.7-2.7-2.7c-1.1,0-2.7,0.8-4,2.1v0.2l0,2.8v0.8c0,5.8,0.1,7.3,0.7,8c0.3,0.4,0.6,0.5,1.6,0.6v0.9
			c-1,0-1.2-0.1-2.5-0.1c-0.6,0-1.2,0-1.8,0c-1.9,0-3.3,0-4.1,0h-0.4V74c1.8-0.1,2.2-0.8,2.2-3.5c0-2,0-3.3,0-4c0-0.4,0-1.1,0-2.1
			c0-3.4,0-6.3,0-8.1v-4.6c0-0.2,0-0.4,0-0.6l-0.1-1l-0.1-0.7c-0.2-2.4-0.7-3.2-0.8-3.2c0.5,0.2,0.8,0.3,1.1,0.3c0.1,0,0.3,0,0.4,0
			l0.4,0l3.1-0.3h0.3v0.4l0,1.3l0,1.1l0,3.1l-0.1,3.6v4.3c2.3-2,4.4-3.1,6.2-3.1c2.3,0,4,1.5,4.6,3.8c0.2,1,0.4,2.3,0.4,3.6
			c0,2.1,0.1,4,0.1,5.7v1.4C137,73.3,137.5,73.9,139.2,74z"/>
		<path class="st0" d="M155.4,62.2c-0.9-4.3-4.4-6.5-8.6-5.6c-4.9,1-7.6,5.7-6.4,11.2c1.1,5.3,5.3,8.3,10.2,7.3
			c1.8-0.4,3.6-1.4,4.9-2.7c0.5-0.5,0.7-0.8,1.6-2l-0.9-0.7c-1.1,1.4-2.6,2.4-4.2,2.7c-3.4,0.7-6.5-1.9-7.6-6.3l11.2-2.3
			C155.6,63,155.5,62.7,155.4,62.2z M151.1,62.1c0,0.2,0.1,0.4,0.1,0.8l-7.1,1.5l0-0.3c-0.2-3.4,0.8-5.4,2.8-5.9
			C148.7,57.8,150.5,59.5,151.1,62.1z"/>
		<path class="st0" d="M170.3,61.5c0,0-0.1-1.6-2.9-1.4c-1.1,0.1-1.9,0.4-2.8,1.4c-0.3,0.3-0.6,0.7-0.9,1.1l0,0.4v2.3
			c0,3.8,0.1,5.7,0.3,6.7c0.1,0.4,0.2,0.7,0.3,0.9c0.4,0.7,1,1,2.3,1v1h-0.4l-4.3-0.1h-0.8c-1.4,0-2.7,0-3.6,0.1h-0.3v-1
			c1.4,0,2-0.4,2.3-1.9c0.1-0.4,0.1-0.8,0.1-1.3c0-0.7,0.1-1.6,0.1-2.8c0-0.4,0-0.8,0-1.2v-5.7c0-0.9-0.2-1.8-0.6-2.7
			c-0.3-0.7-0.5-0.9-0.5-0.9c0.4,0.1,0.8,0.1,1.1,0.1c0.3,0,0.5-0.1,0.7-0.2c0.1,0,0.1,0,0.2,0c0.9-0.2,1.8-0.4,3.1-0.8l0,0.3l0,1.4
			v0.1l0,1.5l0,0.6c0.1-0.1,0.2-0.3,0.3-0.4c0-0.1,0.1-0.1,0.1-0.2c0.1-0.1,0.1-0.2,0.2-0.3c0.1-0.1,0.1-0.2,0.2-0.3
			c0.3-0.3,0.6-0.6,0.9-0.9c0.1-0.1,0.3-0.2,0.4-0.3c0.1-0.1,0.2-0.2,0.3-0.2c0,0,0,0,0,0c0.1,0,0.1-0.1,0.2-0.1c0,0,0,0,0,0
			c0.1-0.1,0.2-0.1,0.3-0.1c0,0,0.1,0,0.1-0.1l0,0h0c0.1,0,0.2-0.1,0.3-0.1c0,0,0.1,0,0.1,0c0,0,0,0,0.1,0c0.1,0,0.1-0.1,0.2-0.1
			c0,0,0,0,0,0c0.3-0.1,0.6-0.1,1-0.1c1.1,0,1.8,0.6,2,1.7c0,0.5,0,1.5,0,1.9C170.4,61.3,170.3,61.5,170.3,61.5z"/>
		<path class="st0" d="M150.1,57.6c0.3,0,0.5-0.1,0.7-0.1C150.6,57.5,150.4,57.6,150.1,57.6L150.1,57.6z"/>
	</g>
	<g>
		<g>
			<path class="st1" d="M96.6,26.8c-0.1,0-0.1,0-0.1,0.1c0,0,0,0,0,0c0,0,0,0,0,0.1c0,0,0,0.1,0,0.1c0,0,0,0.1,0,0.1
				c0,0.1,0,0.1,0,0.2c0,0,0,0.1,0,0.1c0,0,0,0,0,0c0,0,0,0,0,0c0,0.1,0,0.2,0,0.2c0,0.1,0,0.1,0,0.2c0,0,0,0,0,0v0.1c0,0,0,0,0,0v0
				c0,0,0,0.1,0,0.1c0,0.8-0.2,1.5-0.5,2c0,0,0,0,0,0c0,0,0,0,0,0c0,0,0,0,0,0c0,0,0,0,0,0c0,0,0,0,0,0c0,0,0,0,0,0l0,0c0,0,0,0,0,0
				c0,0,0,0,0,0c0,0,0,0,0,0c1.9,0.3,3.6,1.3,4.7,2.8c0.1,0.1,0.2,0,0.2-0.1v0C100.9,30.2,99,27.6,96.6,26.8z"/>
			<g>
				<path class="st1" d="M96.5,28.2c0-0.4,0-0.9-0.1-1.3c0,0,0,0,0-0.1c0,0,0,0,0,0C96.5,27.4,96.5,27.8,96.5,28.2z"/>
				<path class="st1" d="M101.1,33.3c0,0.1-0.1,0.2-0.2,0.1c-1.1-1.5-2.8-2.5-4.7-2.8c-0.1,0-0.1-0.1-0.1-0.2c0,0.1,0,0.1,0.1,0.1
					c1.9,0.3,3.6,1.3,4.7,2.8C100.9,33.4,101,33.4,101.1,33.3z"/>
				<path class="st1" d="M92.1,41.5C92,41.5,92,41.6,92.1,41.5c7.5-0.3,13.8,10.1,14.7,3C107.6,38.4,93.5,41.2,92.1,41.5z
					 M96.4,26.9C96.4,26.9,96.4,26.9,96.4,26.9C96.4,26.9,96.4,26.9,96.4,26.9c0,0.1,0,0.1,0,0.2c0,0,0,0.1,0,0.1c0,0.1,0,0.1,0,0.2
					c0,0,0,0.1,0,0.1c0,0,0,0,0,0c0,0,0,0,0,0c0,0.1,0,0.2,0,0.2c0,0.1,0,0.1,0,0.2c0,0,0,0,0,0C96.5,27.7,96.5,27.3,96.4,26.9z
					 M100.9,33.3c-1.1-1.5-2.8-2.5-4.7-2.8c0,0-0.1-0.1-0.1-0.1c0,0,0,0,0,0c0,0,0,0,0,0c0,0,0,0,0,0c0,0,0,0,0,0l0,0c0,0,0,0,0,0
					c0,0,0,0,0,0c0,0,0,0,0,0C98.1,30.9,99.8,31.9,100.9,33.3c0.1,0.1,0.2,0.1,0.2-0.1C101,33.4,100.9,33.4,100.9,33.3z"/>
			</g>
			<g>
				<path class="st1" d="M88,44.4c-0.5,0-1.1,0.1-1.7,0.1c-0.9,0.1-1.7,0.2-2.6,0.2c-1.9,0-3.2-0.5-4.3-1.4c-2.4-2-3-5.6-1.4-8.3
					c0.1-0.1,0.1-0.2,0.2-0.4c-0.4,0.3-0.8,0.6-1.2,1.2c-1.4,2-1.5,4.7-0.2,7.2c1.3,2.6,3.8,4.4,6.4,4.4c0.2,0,0.4,0,0.5,0
					c0.7,0,1.3,0,2,0c0.7,0,1.3,0,2,0c2.2,0,4.5,0.2,6.8,1.5c1.5,0.9,2.8,2.3,3.9,4.3c0,0,0,0,0,0C97.9,48.3,93.3,44.4,88,44.4z"/>
				<path class="st2" d="M90,18.8l-0.1,0c-0.4,0.1-0.8,0.1-1.1,0.2c-0.1,0-0.2,0-0.2,0.1c0,0,0,0,0,0c0.1,0,0.1,0,0.2-0.1
					c0.3,0,0.7-0.1,1-0.2C89.8,18.9,89.9,18.9,90,18.8z"/>
			</g>
			<path class="st1" d="M97.3,14.7c0,0,0,0.1,0,0.1c-0.1,1.6-1.2,3.1-3,2.9c0,0,0,0,0,0c-0.5-1.9-1.6-3.7-2.4-4.9c0,0,0,0,0,0
				c0.5-1.1,1.5-1.9,2.6-1.9c1.9,0,2.9,1.7,2.9,3.5C97.3,14.5,97.3,14.6,97.3,14.7z"/>
		</g>
		<path class="st1" d="M104.2,27.6c-0.6-2.1-1.6-4.1-3.1-5.7l-0.1-0.1l0,0c0,0,0,0,0,0l0.1-0.4c0.1-0.3,0.1-0.5,0.1-0.8
			c0.1-0.5,0.1-1.1,0.1-1.6c0-1.1,0-2.2-0.2-3.3c-0.4-2.2-1.4-4.2-2.9-5.9c-1.5-1.6-3.4-2.9-5.6-3.4c-1.1-0.2-2.3-0.2-3.4,0.1
			c-0.6,0.1-1.1,0.3-1.5,0.3c-0.2,0-0.4,0-0.6-0.1c-0.1,0-0.2-0.1-0.2-0.1c0,0,0,0-0.1-0.2c-0.1-0.4-0.2-1-0.2-1.5l0-0.8l0-0.2
			l0-0.1l0-0.1c0-0.2-0.2-0.4-0.4-0.4c-0.2,0-0.4,0.1-0.3,0.1l0,0l-0.3,0.2c-0.9,0.6-1.8,1.3-2.6,2.1c-0.7,0.8-1.5,1.9-1.3,3.3
			c0.1,0.7,0.5,1.2,0.9,1.7c0.4,0.4,0.7,0.7,0.8,1.1c0,0.1,0,0.3-0.1,0.4c-0.1,0.1-0.3,0.2-0.4,0.3l0,0l0,0
			c-0.2,0.1-0.5,0.2-0.8,0.5c-0.1,0.2-0.3,0.4-0.3,0.7c0,0.1,0,0.2,0.1,0.3c0,0-0.1,0-0.1,0c0,0-0.1,0-0.2,0c0,0,0,0,0,0
			c-0.3-2.7-2.3-3.8-3.9-3.7c-1.7,0.1-3.6,1.5-3.6,4.3c0,1.4,0.6,2.7,1.5,3.5c-3.8,1.6-6.1,5.4-6.1,10.1l0,0.2
			c0,0.4,0.1,1.2,0.2,1.9c0.2,1.3,0.7,1.3,0.8,1.3l0.5-0.1l0.1-0.4c0.8-3,2.7-5.5,5.4-7c0.2-0.1,0.3-0.2,0.4-0.2
			c0,0.5,0.1,1,0.2,1.5c0,0.2,0.1,0.4,0.1,0.6c-1.3,0.5-2.7,1.6-3.8,3.1c-2.1,2.9-3.4,7.8-1.2,12.8l0,0c0.2,0.3,0.4,0.4,0.5,0.4
			c0.1,0,0.1,0,0.1,0c0.5-0.1,0.5-0.6,0.4-2c0-0.2,0-0.3,0-0.4c0-1.7,1-5.9,3.2-8c0.6-0.5,1.2-0.9,1.9-1c0.1,0.2,0.1,0.5,0.2,0.7
			c0.2,0.5,0.6,1,1,1.5c0.4,0.5,0.8,0.9,1.2,1.4c0.1,0.1,0.2,0.2,0.3,0.3c-0.1,0.8,0,1.6,0.3,2.4c0.5,1.1,1.4,1.9,2.4,2.4
			c1,0.5,2.1,0.7,3.2,0.8c1.1,0.1,2.2,0.1,3.2,0c2.1-0.2,4.2-0.8,6.3-1.3c1-0.3,2-0.5,3.1-0.6c0.5,0,1-0.1,1.6-0.2l1.6,0l-1.6-0.1
			c-0.5,0-1.1-0.1-1.6-0.1c-1.1,0-2.1,0.2-3.2,0.4c-2.1,0.5-4.1,0.9-6.2,1.1c-2,0.1-4.2,0-6-0.9c-0.8-0.5-1.6-1.1-1.9-2
			c-0.3-0.7-0.3-1.5-0.1-2.3c0.1,0,0.1,0,0.2,0.1c0.1,0.8,0.4,1.6,1.3,1.9c0,0,0,0,0,0h5.9c0,0,0,0,0,0c0.9-0.3,1.2-1.1,1.3-1.9
			c0-0.1,0-0.1,0-0.2c0,0,0,0,0-0.1c0-0.1,0-0.1,0-0.2c0-0.9-0.3-1.8-0.5-2.5c0,0,0,0,0,0l-3.7-1.3c0,0,0,0,0,0
			c-0.1,0-3.6,1.1-4.2,1.2c-0.1,0-0.1,0-0.1-0.1c0,0-0.1-0.1-0.1-0.3v0c-0.1-0.2-0.3-0.5-0.3-0.7c0,0,0-0.1,0.1-0.1
			c0.1,0,0.1,0,0.2,0c1.2-0.2,3.1-1,3.4-2.3c0,0,0,0,0,0c-0.1-0.2-1.7-2.9-2-3.5c0,0,0-0.1,0-0.1c0-0.1,0-0.1,0.1-0.1
			c1.6-0.6,4.3-1.1,5.8,0.2c0,0,0,0,0,0l-2,3.5c0,0,0,0,0,0.1c0,0,0,0.1,0,0.1c2.7,3.5,5.5,2.4,5.7-0.5c0-0.1,0-0.2,0-0.3
			c0-0.9-0.2-1.8-0.7-2.9c0,0,0-0.1,0-0.1c0,0,0-0.1,0.1-0.1l1.7-1c0,0,0,0,0-0.1v0c0-0.4-0.4-2-0.8-3.3c-0.5,0.4-1.1,0.6-1.8,0.5
			c-0.4-0.1-0.9-0.2-1.3-0.4c-0.8-0.2-1.6,0.3-1.6,1.1c-0.1,1.7,0.4,2.7,0.8,3.1c-1.7-1.9-1.7-4.8-1-5.7c0,0,0,0,0,0c0,0,0,0,0,0
			c0,0,0-0.1,0.1-0.1c0.1,0,0.1-0.1,0.2-0.1c0.4-0.1,0.8-0.1,1.1-0.2l0.1,0l2.7-0.4c0,0,0,0,0,0c0,0,0,0,0,0
			c-0.9-2.7-1.6-3.8-3.1-4.1c0,0,0,0,0,0l-3.2-0.1c-0.2,0-1.5,0.1-2.5,0.1c-0.1,0-0.2,0-0.4,0c-0.4,0-0.7-0.2-0.9-0.4c0,0,0,0,0,0
			c0,0,0,0,0,0c0.1-0.1,0.3-0.2,0.5-0.3l-0.1,0c0.4-0.1,0.7-0.4,0.9-0.7c0.2-0.3,0.3-0.8,0.2-1.2l0,0l0,0c-0.2-0.6-0.7-1.1-1-1.5
			c-0.4-0.4-0.6-0.7-0.7-1.2c-0.1-0.9,0.4-1.8,1.1-2.5c0.6-0.7,1.4-1.3,2.2-1.8l0,0.5c0.1,0.5,0.1,1.1,0.3,1.7
			c0,0.1,0.1,0.3,0.3,0.5c0.2,0.1,0.3,0.2,0.4,0.3c0.3,0.1,0.7,0.2,1,0.2c0.6,0,1.1-0.2,1.6-0.3c1-0.2,2-0.3,3-0.1
			c2,0.4,3.9,1.5,5.2,3.1c1.4,1.5,2.4,3.4,2.8,5.5c0.2,1,0.3,2.1,0.3,3.1c0,0.5-0.1,1-0.1,1.6c0,0.3-0.1,0.5-0.1,0.8
			c0,0.2,0,0.2-0.1,0.4c0,0.1,0,0.2,0.1,0.3c0,0.1,0.1,0.1,0.1,0.1l0.1,0.1c1.4,1.5,2.6,3.4,3.2,5.4c0.6,2,0.8,4.2,0.3,6.3
			C104.8,32,104.8,29.7,104.2,27.6z M75.7,31.5c-2.2,2-3.2,5.8-3.5,8c-0.9-3.8,0.3-7.3,1.9-9.5c0.9-1.3,2.1-2.2,3.2-2.7l0.8,2.9
			C77.2,30.4,76.4,30.9,75.7,31.5z M76.6,23.2L76.6,23.2l-0.1,0c-0.1,0.1-0.4,0.2-0.7,0.4c-2.4,1.4-4.3,3.5-5.3,6.1
			c0-0.4-0.1-0.8-0.1-1l0-0.1c0-4.4,2.3-8,6-9.3c0.2-0.1,0.4-0.3,0.4-0.5c0-0.3-0.1-0.5-0.3-0.6c-1-0.6-1.6-1.8-1.6-3.1
			c0-2.1,1.4-3.2,2.6-3.3c1.3-0.1,2.6,0.7,2.9,2.8c0,0,0,0.1,0,0.2C78.1,15.7,76.9,21.6,76.6,23.2z M82.9,18.9c0.3,0,0.7,0,1,0.1
			c0.1,0,0.2,0,0.3,0.2c0,0.1-0.1,0.3-0.2,0.5c0,0-0.1,0.1-0.1,0.1c0,0,0,0,0,0c-0.5,0.4-1,0.8-1.6,1.1c-0.2,0.1-0.5,0.2-0.8,0.3
			c0,0,0,0,0,0c-0.9,0.2-1.6-0.2-2.2-0.8c0,0-0.1-0.1-0.1-0.1h0c0,0,0,0,0,0c0,0,0-0.1-0.1-0.1c0,0-0.1-0.1-0.1-0.1l0,0
			c-0.2-0.3-0.5-0.5-0.7-0.9c0,0,0-0.1,0-0.1c0,0,0,0,0,0c-0.1-0.3-0.1-0.4,0.2-0.4c0,0,0,0,0,0C80,18.7,81.5,18.8,82.9,18.9z"/>
	</g>
</g>
</svg>
