<?xml version="1.0" encoding="utf-8"?>
<!-- Generator: Adobe Illustrator 25.3.1, SVG Export Plug-In . SVG Version: 6.00 Build 0)  -->
<svg version="1.1" id="Ebene_1" xmlns="http://www.w3.org/2000/svg" xmlns:xlink="http://www.w3.org/1999/xlink" x="0px" y="0px"
	 viewBox="0 0 266.4 120" style="enable-background:new 0 0 266.4 120;" xml:space="preserve">
<style type="text/css">
	.st0{fill-rule:evenodd;clip-rule:evenodd;fill:#CE0E2D;}
	.st1{fill:#006937;}
	.st2{display:none;fill-rule:evenodd;clip-rule:evenodd;fill:#006937;}
</style>
<g id="Logo_2_">
	<g>
		<path class="st0" d="M29.1,107.3c-3-5.4-4-6.7-5.9-7.9c-1-0.7-1.8-0.9-3.5-1.1c4-1.2,5.1-1.7,7.4-3.6c2.5-2.1,4.2-5.6,4.2-8.9
			c0-6.8-5.6-11.7-13.5-11.7c-0.2,0-0.4,0-0.6,0.1l-5.4,0.1c-1,0-2.6,0.1-4.9,0.1c-0.4,0-0.8,0-1.1,0c-0.5,0-1.1-0.2-1.8-0.6
			c0.1,0.1,0.8,1.4,0.8,5.3v5.6h0C5,86.6,5,88.5,5,90.3V94l-0.1,1c-0.1,6-0.1,9.6-0.1,11.1c0,1.6,0,2.7-0.1,3.3v0.1
			c-0.1,3.4-0.9,4.3-3.6,4.5v1.4h0.5l7.1-0.1l7.1,0.1h0.5v-1.4c-3.3-0.3-3.8-1.1-3.9-7.5l-0.1-6l-0.1-1.5c3.2,0.4,4.1,1,5.4,3.4
			l2.6,5c3.6,7,8.9,10.6,15.2,10.6c0.9,0,2.1-0.1,3.7-0.2v-1.2C35.4,116.3,32.9,113.9,29.1,107.3z M13.6,96.5c-0.5,0-0.7,0-1.3-0.1
			v-1c0.1-1.9,0.1-4.9,0.1-8.9c0-3.7,0.1-6.4,0.1-8.4v-0.8c0.7-0.1,1-0.2,1.6-0.2c5.4,0,9.3,4.3,9.3,10.2
			C23.5,92.7,19.4,96.5,13.6,96.5z"/>
		<path class="st0" d="M65.1,100.8c0-8.7-6.2-14.8-15-14.8c-8.9,0-15.3,6.3-15.3,15.4c0,8.9,6.1,15,15.1,15
			C59,116.4,65.1,110.1,65.1,100.8z M57.5,101c0,7.6-3,12.8-7.6,12.8c-4.5,0-7.5-5.1-7.5-12.6c0-7.6,3-12.5,7.8-12.5
			C54.5,88.7,57.5,93.7,57.5,101z"/>
		<path class="st0" d="M88.4,107.7c0,4.9-4.5,8.6-10.2,8.6c-2.1,0-4.8-0.3-5.6-0.6c-0.9-0.3-1.5-0.5-1.8-0.5c-0.4,0-0.8,0.3-1,0.6
			h-1.5c0.1-0.3,0.1-0.4,0.1-0.5c0.1-0.2,0.1-0.4,0.1-0.6c0-1.2,0-2.4-0.1-3.6l-0.1-4v-0.5h1.6c0.1,4.1,3.2,7.1,7.2,7.1
			c2.6,0,4.7-1.8,4.7-4.1c0-1.5-1-2.8-3.2-4.4l-4-3c-3.7-2.7-5.6-5.7-5.6-8.7c0-4.6,4.1-7.7,10-7.7c1.2,0,2.3,0.1,3.4,0.4
			c0,0,0.1,0,0.1,0c0.9,0.2,1.8,0.4,2.7,0.4c0.3,0,0.6,0,1,0c0.2,0,0.3,0,0.5,0c-0.2,3-0.2,3.6-0.3,7.1v0.5h-1.6
			c-0.5-4.1-2.2-6-5.3-6c-2.1,0-3.8,1.4-3.8,3.2c0,1.7,1,3.2,3.6,5.2l3.7,2.9C87.1,102.8,88.4,104.8,88.4,107.7z"/>
		<path class="st0" d="M110.2,86.1c-3,0-6.2,1.4-9.8,4.2v-6.5l0.1-7.8c0-2.3,0.1-3.6,0.1-4.5c0-1,0.1-1.6,0.2-2.7
			c-0.3,0-0.5,0.1-0.7,0.1c-0.5,0.1-1.3,0.2-2.5,0.3c-0.3,0-0.6,0.1-1,0.1c-0.4,0-0.7,0.1-1.1,0.1c-0.1,0-0.1,0-0.2,0
			c-0.1,0-0.2,0-0.4,0c-0.2,0-0.3,0-0.5,0c-0.1,0-0.1,0-0.2,0c-0.5,0-1.1-0.1-1.8-0.4c0.1,0.1,0.9,1.3,1.2,4.9v10.3l0.1,8.7l-0.1,8
			l-0.1,4.9c0,3.2,0,3.5-0.2,5.2c3.6,3.3,8.5,5.3,13.2,5.3c9.2,0,15.2-6.3,15.2-15.9C121.9,92.1,117,86.1,110.2,86.1z M106.2,113.8
			c-1.6,0-3-0.7-4-2.1c-1.4-1.9-1.5-2.8-1.7-9.4l-0.1-3.4v-5.5c1.9-2,4.1-3,6.3-3c4.9,0,7.9,4.3,7.9,10.9
			C114.7,108.7,111.2,113.8,106.2,113.8z"/>
		<path class="st0" d="M152.9,112c-0.6,0.1-1.2,0.2-1.5,0.2c-2.3,0-2.7-1.3-2.7-8.2v-2.8c0-6.5-0.3-8.7-1.8-11.4
			c-1.4-2.5-4.8-3.9-9.5-3.9c-1,0-1.9,0.1-2.7,0.3c-0.1,0-0.1,0-0.2,0c0,0,0,0,0,0c-1.5,0.4-3,0.6-4.6,0.6c-0.3,0-0.7,0-1,0
			c-0.1,1.1-0.2,2-0.3,2.8c-0.1,0.4-0.3,1.9-0.6,4.7l-0.1,0.5l1.6,0.1c1.3-3.9,3.9-6.1,7.2-6.1c3.9,0,5.2,2.3,5.2,9.5v1.1
			c-1.7-0.1-2.9-0.1-3.8-0.1c-8,0-12.8,3.4-12.8,8.9c0,4.6,3.7,8.2,8.3,8.2c3.2,0,6.1-1.3,8.7-3.9c0.4,1.6,1,2.9,1.7,4
			c2.8-1.2,5.2-1.9,8.7-2.8l0.4-0.1L152.9,112z M137,112.2c-2.8,0-4.8-2-4.8-4.9c0-3.6,3.2-5.8,8.3-5.8c0.3,0,0.7,0.1,1.4,0.1v6.9
			c0,0.8,0,1,0.1,1.6C139.7,111.7,138.6,112.2,137,112.2z"/>
		<path class="st0" d="M180.6,112c-3.6,2.9-7.4,4.3-11.7,4.3c-8.2,0-13.9-6.3-13.9-15.3c0-5.7,2.3-10.2,6.2-12.8
			c2.4-1.6,5.3-2.5,8.7-2.5c1.6,0,3.2,0.2,4.8,0.6c0,0,0,0,0.1,0c0.4,0.1,0.8,0.2,1.1,0.3c0.1,0,0.1,0,0.1,0
			c1.5,0.6,2.8,1.7,3.6,3.3c0,0.4,0,0.8,0,1.2v4h-1.7c-0.4-4-3.3-6.7-7.1-6.7c-1.2,0-2.3,0.3-3.3,0.8c-3.1,1.7-5.1,5.7-5.1,10.9
			c0,7.7,3.8,12.6,9.8,12.6c2.5,0,4.6-0.7,7.5-2.5l0.7,1.2L180.6,112z"/>
		<path class="st0" d="M214.8,114.2v1.4h-0.6l-6.7-0.1l-6.9,0.1h-0.6v-1.4h0.5c3.2-0.3,3.8-1.6,3.8-9.1c0-4.5-0.3-8.1-0.6-10.1
			c-0.5-2.5-2.3-4.3-4.4-4.3c-1.8,0-4.3,1.4-6.4,3.4v0.4l-0.1,4.5v1.3c0,9.4,0.2,11.8,1.1,12.9c0.4,0.7,1,0.8,2.6,1v1.4
			c-1.6-0.1-2-0.1-4-0.1c-1,0-1.9,0-3,0.1c-3.1,0.1-5.3,0.1-6.7,0.1h-0.6v-1.4c2.9-0.2,3.6-1.2,3.6-5.7c0.1-3.2,0.1-5.4,0.1-6.4
			c0.1-0.7,0.1-1.8,0.1-3.4c0-5.4,0-10.1-0.1-13.1v-7.5c0-0.3,0-0.6,0-1l-0.2-1.7l-0.1-1.2c-0.4-3.9-1.2-5.1-1.3-5.2
			c0.7,0.3,1.3,0.4,1.8,0.4c0.2,0,0.4,0,0.6,0l0.6,0l5-0.5h0.5v0.6l-0.1,2.1l-0.1,1.8l-0.1,5l-0.1,5.8V91c3.7-3.3,7.1-5,10.1-5
			c3.7,0,6.5,2.4,7.4,6.1c0.3,1.7,0.6,3.7,0.6,5.9c0.1,3.4,0.1,6.5,0.1,9.2v2.2C211.1,113,212,114.1,214.8,114.2z"/>
		<path class="st0" d="M240.9,95c-1.5-6.9-7-10.6-13.9-9.1c-7.9,1.7-12.3,9.3-10.4,18.2c1.8,8.6,8.6,13.5,16.4,11.8
			c3-0.6,5.8-2.2,7.9-4.4c0.9-0.8,1.2-1.2,2.6-3.2l-1.4-1.2c-1.8,2.2-4.3,3.9-6.8,4.4c-5.4,1.1-10.6-3.1-12.3-10.3l18.1-3.8
			C241.2,96.4,241.1,95.9,240.9,95z M233.9,94.9c0.1,0.4,0.1,0.7,0.2,1.3l-11.5,2.4l0-0.5c-0.4-5.5,1.3-8.8,4.6-9.5
			C230.2,88,233.1,90.7,233.9,94.9z"/>
		<path class="st0" d="M265.1,94c0,0-0.1-2.7-4.6-2.3c-1.8,0.1-3.1,0.6-4.6,2.2c-0.5,0.5-0.9,1.1-1.5,1.9l-0.1,0.7v3.7
			c0,6.2,0.1,9.2,0.4,10.9c0.1,0.7,0.3,1.1,0.5,1.5c0.6,1.2,1.6,1.5,3.8,1.6v1.5h-0.6l-7-0.1h-1.3c-2.2,0-4.4,0.1-5.8,0.1h-0.5v-1.5
			c2.2,0,3.3-0.6,3.7-3.1c0.1-0.6,0.2-1.3,0.2-2.1c0.1-1.2,0.1-2.7,0.1-4.5c0-0.6,0-1.3-0.1-2v-9.2c0-1.5-0.3-3-0.9-4.3
			c-0.5-1.1-0.9-1.4-0.9-1.4c0.7,0.2,1.3,0.2,1.8,0.2c0.4-0.1,0.8-0.2,1.2-0.3c0.1,0,0.2,0,0.3-0.1c1.4-0.3,2.8-0.7,5.1-1.3
			l-0.1,0.5l-0.1,2.2v0.1l-0.1,2.5l-0.1,1c0.1-0.2,0.3-0.4,0.4-0.6c0.1-0.1,0.2-0.2,0.2-0.3c0.1-0.2,0.2-0.3,0.3-0.4
			c0.1-0.1,0.2-0.3,0.3-0.4c0.4-0.6,0.9-1,1.4-1.5c0.2-0.2,0.4-0.3,0.6-0.5c0.2-0.1,0.4-0.3,0.6-0.4c0,0,0,0,0.1,0
			c0.1-0.1,0.2-0.1,0.3-0.2c0,0,0,0,0,0c0.1-0.1,0.3-0.2,0.5-0.2c0.1,0,0.1-0.1,0.2-0.1l0,0h0c0.2-0.1,0.3-0.1,0.5-0.2
			c0.1,0,0.1,0,0.2-0.1c0,0,0.1,0,0.1,0c0.1-0.1,0.2-0.1,0.4-0.1c0,0,0,0,0.1,0c0.5-0.1,1-0.2,1.6-0.2c1.8,0,3,1,3.3,2.8
			c0,0.9,0,2.4,0,3.1C265.3,93.6,265.1,94,265.1,94z"/>
	</g>
	<g>
		<g>
			<g>
				<g>
					<g>
						<path class="st1" d="M109.6,18.7c0-7.6,9.6-8.5,10.5-1c0,0.1,0,0.2-0.2,0.3c-5,1-5.4,9.9-7.7,15.5c-4.2,2.4-7.6,6.4-9.1,11.8
							c-0.8,0.6-0.9-3.9-0.9-4.6c0-7.3,3.7-13.5,10.3-15.9c0.2-0.1,0.2-0.3,0-0.4C110.8,23.4,109.6,21.2,109.6,18.7z"/>
						<path class="st1" d="M117.1,37.6c0.1,0,0.2,0.1,0.2,0.3c-0.3,2-0.1,4.4,0.5,6c0.1,0.2,0,0.3-0.2,0.3
							c-7.6-0.3-10.6,11.8-10.7,15.6c-0.2,0.5,0.5,3.6-0.2,3C101,50,109.8,37,117.1,37.6z"/>
					</g>
					<path class="st2" d="M123.2,17c-0.2,0.1,0,0.4,0.1,0.4l10.8,0.3c0.5,0.1,0.9,0.3,1.3,0.6c0.6-1.6,1.6-3,2.7-4.2
						c2.2-2.4,5.2-3.3,8.1-4.2c-3.8-4-8.2-6-13.4-6.1c-3.6-0.1-10.7,0.5-10.7,5.4C124.3,12.4,127.7,13.8,123.2,17z"/>
				</g>
				<path class="st1" d="M138.1,61.9c0,0,25.3-5.7,24,4.8C160.6,78.3,150.3,61.1,138.1,61.9z"/>
				<g>
					<path class="st1" d="M149.1,81.9c-0.1-8.9-8.5-15.9-17.3-15.8c-4.5,0.3-9.9,1.7-13.7-1.7c-3.8-3.1-4.7-8.8-2.1-13
						c0.3-0.7,0.7-1.2,1.1-1.9c-1.2,1-2.3,1.4-3.2,2.9c-5.3,7.6,1.5,19.1,10.3,19.3c6.3,0.1,12.5-1.1,18.2,2.3
						c2.9,1.7,5,4.5,6.5,7.4C148.9,81.7,149,82.1,149.1,81.9C149.1,82,149.1,82,149.1,81.9z"/>
				</g>
			</g>
		</g>
		<path class="st1" d="M151.9,30.3c2.3-10.9-2.7-21.6-12.8-23.8c-1.7-0.3-3.5-0.6-5.2-0.1c-3.7,1.6-5.6,0.8-5.4-3.7
			c0.3-1-0.2-1.1-0.6-0.5c-2,2.1-6.7,4.3-5,8c1.9,2.6,4.2,4.9,0.2,6.8c-2,1.5,5.3,0.7,6,0.7c0,0,5.3,0.1,5.3,0.1
			c2.3,0.6,3.5,2.4,4.9,6.7c0,0,0.1,0.2,0.2,0.4c0,0,0,0,0,0c-1.7,0.2-3.4,0.5-5.1,0.7c-0.5,0.1-1.1,0.2-1.6,0.2
			c-0.1,0-0.2,0-0.3,0.1c0,0-0.1,0.1-0.1,0.1v0c-1.1,1.3-1.1,5.7,1.5,8.7c-0.5-0.7-1.3-2.2-1.2-4.7c0.1-1.4,1.5-2.2,2.8-1.7
			c0.4,0.2,0.8,0.3,1.3,0.4c1.4,0.1,2.5-0.5,3.5-1.6c0.7,2.4,1.6,5.6,1.5,6.1c0,0-2.8,1.6-2.8,1.6c-0.1,0.1-0.1,0.2-0.1,0.3
			c3.9,7.8-2.3,13.5-8,6c0-0.1-0.1-0.2,0-0.3l3.2-5.7c-2.5-2-6.9-1.3-9.5-0.3c-0.1,0-0.2,0.2-0.1,0.3c0.6,1.1,3.3,5.7,3.3,5.7
			c-0.6,2.1-4,3.4-5.9,3.7c-0.5,0.1,0.5,1.4,0.5,1.6c0,0.1,0.1,0.1,0.2,0.1c0.9-0.3,6.6-2,6.8-2l6,2.2c0.8,2.1,1.8,6.5-1.3,7.7
			l-9.5,0c-1.5-0.6-2-1.8-2.1-3.1c0-0.2-0.3-0.3-0.4,0c-1.4,3.3,1.2,6.3,3.9,7.8c0,0,6.1,2.4,9.8,1.1c10.6-3.6,19.8-2.8,19.8-2.8
			C161.4,40.6,156.1,35.5,151.9,30.3z M137.9,15.5c0.8-1.8,2.4-3.1,4.2-3.1c6.4,0.1,6,11.7-0.3,11C141,20.3,139.3,17.4,137.9,15.5z
			 M152.5,48.6c-1.8-2.4-4.5-4-7.6-4.5c-0.1,0-0.2-0.2-0.1-0.3c0.6-1.5,1-3.5,0.6-5.6c0-0.1,0.1-0.3,0.2-0.3c4,1.3,6.9,5.5,7.3,10.5
			C152.9,48.7,152.7,48.8,152.5,48.6z"/>
		<path class="st1" d="M121.4,28.9c-1.5,0.3-2.7-0.4-3.8-1.5c-0.4-0.4-0.7-0.8-1-1.3c-0.3-0.5-0.2-0.7,0.3-0.7
			c2.1,0.1,4.3,0.3,6.4,0.4c0.5,0,1,0.1,1.5,0.1c0.2,0,0.4,0,0.4,0.3c0.1,0.2,0,0.4-0.2,0.5C124,27.7,122.8,28.5,121.4,28.9z"/>
	</g>
</g>
</svg>
